<svg aria-hidden="true" style="width:0;height:0;position:absolute;overflow:hidden" xmlns="http://www.w3.org/2000/svg"><defs><symbol id="icon-search" viewBox="0 0 32 32"><path d="m31.008 27.231-7.58-6.447c-.784-.705-1.622-1.029-2.299-.998a11.954 11.954 0 0 0 2.87-7.787c0-6.627-5.373-12-12-12s-12 5.373-12 12 5.373 12 12 12c2.972 0 5.691-1.081 7.787-2.87-.031.677.293 1.515.998 2.299l6.447 7.58c1.104 1.226 2.907 1.33 4.007.23s.997-2.903-.23-4.007zM12 20a8 8 0 1 1 0-16 8 8 0 0 1 0 16z"/></symbol><symbol id="icon-hero-arrow" viewBox="0 0 82 32"><path fill="#fcfcfc" style="fill:var(--color1,#fcfcfc)" d="M81.414 17.414c.362-.362.586-.862.586-1.414s-.224-1.052-.586-1.414L68.686 1.858a2 2 0 1 0-2.829 2.827l.001.001L77.172 16 65.858 27.314a2 2 0 0 0 2.829 2.827l-.001.001 12.728-12.728zM0 18h80v-4H0v4z"/></symbol><symbol id="icon-arrow-up2" viewBox="0 0 32 32"><path d="m27.414 12.586-10-10a2 2 0 0 0-2.828 0l-10 10a2 2 0 1 0 2.828 2.828L14 8.828V28a2 2 0 1 0 4 0V8.828l6.586 6.586c.39.39.902.586 1.414.586s1.024-.195 1.414-.586a2 2 0 0 0 0-2.828z"/></symbol><symbol id="icon-spinner2" viewBox="0 0 32 32"><path d="M32 16a15.832 15.832 0 0 0-4.864-11.137 15.717 15.717 0 0 0-5.156-3.302A15.512 15.512 0 0 0 15.999.5 15.335 15.335 0 0 0 5.216 5.216a15.23 15.23 0 0 0-3.193 4.994A15.027 15.027 0 0 0 1 16a14.92 14.92 0 0 0 1.254 5.694A14.84 14.84 0 0 0 5.57 26.43a14.708 14.708 0 0 0 4.832 3.085A14.534 14.534 0 0 0 16 30.5c1.897-.04 3.78-.455 5.502-1.216a14.346 14.346 0 0 0 4.574-3.208 14.213 14.213 0 0 0 2.977-4.67c.407-1.046.684-2.137.829-3.244a2 2 0 0 0 2.111-2.163H32zm-3.178 5.311c-.733 1.663-1.796 3.169-3.099 4.412s-2.844 2.225-4.508 2.868A13.536 13.536 0 0 1 16 29.5a13.328 13.328 0 0 1-9.369-4.131 13.246 13.246 0 0 1-2.76-4.346 13.048 13.048 0 0 1 .231-9.952c.683-1.541 1.672-2.937 2.883-4.088s2.642-2.058 4.184-2.652a12.539 12.539 0 0 1 9.568.231c1.48.658 2.82 1.609 3.926 2.774s1.975 2.54 2.543 4.021c.57 1.481.837 3.064.794 4.641h.007a2 2 0 0 0 1.777 2.155 13.829 13.829 0 0 1-.962 3.156z"/></symbol></defs></svg>